<svg width="13" height="13" fill="none" xmlns="http://www.w3.org/2000/svg"><path d="M12.625 1.309a.684.684 0 00-.219-.493c-.136-.109-.3-.191-.465-.191H1.06a.678.678 0 00-.493.191.659.659 0 00-.191.493V12.19c0 .192.055.356.191.493.11.136.274.191.493.191h5.85V8.117H5.324V6.285H6.91V4.918c0-.766.219-1.367.656-1.805.438-.41 1.012-.629 1.723-.629.547 0 1.04.028 1.422.055v1.668h-.984c-.356 0-.602.082-.739.246-.11.137-.164.356-.164.656v1.176h1.832l-.246 1.832H8.824v4.758h3.117a.659.659 0 00.493-.191.79.79 0 00.191-.493V1.31z" fill="#fff"/></svg>