<svg width="170" height="35" fill="none" xmlns="http://www.w3.org/2000/svg"><path d="M.556 27V2.232h16.632v4.824H6.82v5.868h9.036v4.824H6.82V27H.556zm25.752.288c-1.224 0-2.208-.156-2.952-.468-.744-.312-1.308-.768-1.692-1.368-.384-.6-.636-1.344-.756-2.232-.12-.888-.18-1.92-.18-3.096V8.64h5.76v9.72c0 .984.024 1.764.072 2.34.072.552.192.96.36 1.224.168.264.42.432.756.504.336.048.792.072 1.368.072.624 0 1.116-.06 1.476-.18.384-.144.66-.372.828-.684.168-.312.276-.744.324-1.296a17.54 17.54 0 00.108-2.124V8.64h5.796V27h-5.508l-.144-2.232H31.6a4.432 4.432 0 01-1.296 1.512 5.03 5.03 0 01-1.8.756 9.042 9.042 0 01-2.196.252zM41.998 27V8.64h5.472l.144 3.132h.324c.336-.888.756-1.584 1.26-2.088a4.248 4.248 0 011.908-1.044c.744-.192 1.608-.288 2.592-.288v5.292c-1.512 0-2.7.192-3.564.576-.864.384-1.476 1.044-1.836 1.98-.36.912-.54 2.196-.54 3.852V27h-5.76zm14.765 0V8.64h5.472l.144 2.232h.324c.36-.624.804-1.116 1.332-1.476a4.695 4.695 0 011.8-.792 9.042 9.042 0 012.196-.252c1.224 0 2.196.156 2.916.468.744.312 1.308.768 1.692 1.368.384.6.636 1.344.756 2.232.144.888.216 1.92.216 3.096V27h-5.796v-9.72c0-.984-.024-1.752-.072-2.304-.048-.576-.156-.996-.324-1.26s-.432-.42-.792-.468c-.336-.072-.792-.108-1.368-.108-.6 0-1.092.072-1.476.216-.36.12-.636.336-.828.648-.168.312-.288.756-.36 1.332a24.876 24.876 0 00-.072 2.088V27h-5.76zM77.961 4.896V.252h5.94v4.644h-5.94zM78.033 27V8.64h5.832V27h-5.832zm19.697.288A74.027 74.027 0 0191.322 27a124.767 124.767 0 01-2.844-.288v-4.644l2.664.216c.912.072 1.776.12 2.592.144.816.024 1.5.036 2.052.036 1.152 0 2.028-.036 2.628-.108.6-.096 1.044-.228 1.332-.396.192-.168.324-.348.396-.54.096-.192.156-.42.18-.684.024-.264.036-.564.036-.9 0-.504-.036-.9-.108-1.188-.048-.312-.168-.552-.36-.72-.168-.168-.432-.288-.792-.36-.36-.096-.828-.18-1.404-.252l-5.076-.648c-.984-.12-1.788-.36-2.412-.72a4.24 4.24 0 01-1.476-1.512c-.36-.624-.612-1.356-.756-2.196a17.593 17.593 0 01-.216-2.88c0-1.632.24-2.928.72-3.888.48-.984 1.14-1.728 1.98-2.232.864-.528 1.86-.876 2.988-1.044 1.152-.168 2.4-.252 3.744-.252.96 0 1.956.036 2.988.108 1.032.048 2.004.132 2.916.252.912.096 1.668.216 2.268.36V7.2c-.6-.096-1.308-.168-2.124-.216-.792-.072-1.62-.12-2.484-.144a44.269 44.269 0 00-2.448-.072c-.936 0-1.68.036-2.232.108-.552.048-.984.156-1.296.324-.336.192-.552.444-.648.756-.072.312-.108.708-.108 1.188 0 .6.048 1.068.144 1.404.096.312.312.528.648.648s.852.228 1.548.324l4.932.576a9.954 9.954 0 011.836.36 4.51 4.51 0 011.548.792c.48.36.876.876 1.188 1.548.168.312.3.696.396 1.152a15.789 15.789 0 01.36 3.456c0 1.416-.144 2.616-.432 3.6-.288.96-.696 1.728-1.224 2.304a5.602 5.602 0 01-1.908 1.296c-.744.288-1.572.468-2.484.54a26.51 26.51 0 01-2.844.144zM110.517 27V.252h5.76v10.512h.324c.36-.6.792-1.068 1.296-1.404a5.04 5.04 0 011.764-.756 9.793 9.793 0 012.124-.216c1.224 0 2.196.156 2.916.468.744.288 1.308.732 1.692 1.332.384.6.636 1.344.756 2.232.144.888.216 1.92.216 3.096V27h-5.796v-9.72c0-.984-.024-1.752-.072-2.304-.048-.576-.156-.996-.324-1.26s-.432-.42-.792-.468c-.336-.072-.792-.108-1.368-.108-.6 0-1.092.072-1.476.216-.36.12-.636.336-.828.648-.168.312-.288.756-.36 1.332a24.876 24.876 0 00-.072 2.088V27h-5.76zm29.334.288c-1.632 0-2.988-.096-4.068-.288-1.08-.192-1.932-.504-2.556-.936a3.744 3.744 0 01-1.368-1.728c-.288-.72-.48-1.62-.576-2.7a58.992 58.992 0 01-.108-3.852c0-1.488.036-2.76.108-3.816.096-1.08.288-1.98.576-2.7a3.744 3.744 0 011.368-1.728c.624-.432 1.476-.732 2.556-.9 1.08-.192 2.436-.288 4.068-.288 1.656 0 3.024.096 4.104.288 1.08.168 1.932.468 2.556.9a3.744 3.744 0 011.368 1.728c.288.72.468 1.62.54 2.7.096 1.056.144 2.328.144 3.816s-.048 2.772-.144 3.852c-.072 1.08-.252 1.98-.54 2.7a3.744 3.744 0 01-1.368 1.728c-.624.432-1.476.744-2.556.936-1.08.192-2.448.288-4.104.288zm0-4.392c.72 0 1.284-.048 1.692-.144.408-.096.696-.312.864-.648.168-.336.264-.852.288-1.548.048-.696.072-1.62.072-2.772a40.5 40.5 0 00-.072-2.736c-.024-.672-.12-1.176-.288-1.512-.168-.336-.456-.552-.864-.648-.408-.096-.972-.144-1.692-.144s-1.284.048-1.692.144c-.384.096-.66.312-.828.648-.168.336-.276.84-.324 1.512a80.912 80.912 0 00-.036 2.736c0 1.152.012 2.076.036 2.772.048.696.156 1.212.324 1.548.168.336.444.552.828.648.408.096.972.144 1.692.144zm12.572 11.268V8.64h5.472l.144 2.232h.324c.384-.696.84-1.224 1.368-1.584a4.9 4.9 0 011.836-.72 9.597 9.597 0 012.016-.216c1.08 0 1.992.144 2.736.432.768.288 1.392.792 1.872 1.512.504.696.864 1.656 1.08 2.88.24 1.224.36 2.76.36 4.608 0 1.824-.12 3.348-.36 4.572-.216 1.224-.564 2.196-1.044 2.916a4.043 4.043 0 01-1.872 1.548c-.744.312-1.656.468-2.736.468-.696 0-1.368-.06-2.016-.18a5.352 5.352 0 01-1.764-.648c-.504-.336-.948-.804-1.332-1.404h-.324v9.108h-5.76zm8.568-11.628c.648 0 1.164-.048 1.548-.144.384-.096.66-.288.828-.576.192-.312.312-.78.36-1.404.072-.624.108-1.488.108-2.592s-.036-1.968-.108-2.592c-.048-.648-.168-1.116-.36-1.404-.168-.312-.444-.504-.828-.576-.384-.096-.9-.144-1.548-.144-.696 0-1.236.096-1.62.288-.36.168-.636.468-.828.9-.144.384-.24.876-.288 1.476-.048.576-.072 1.26-.072 2.052 0 .816.024 1.512.072 2.088.048.576.132 1.032.252 1.368.192.48.48.816.864 1.008.384.168.924.252 1.62.252z" fill="#fff"/></svg>